<svg width="14" height="15" viewBox="0 0 14 15" fill="none" xmlns="http://www.w3.org/2000/svg">
<path fill-rule="evenodd" clip-rule="evenodd" d="M12.7697 13.5654C13.1189 13.2162 13.3912 12.7979 13.5694 12.3373C13.7408 11.8963 13.858 11.3923 13.8917 10.6543C13.9254 9.91485 13.9334 9.67874 13.9334 7.79577C13.9334 5.91281 13.9254 5.67659 13.8917 4.93718C13.858 4.19918 13.7408 3.69521 13.5694 3.25419C13.3953 2.79157 13.1224 2.37247 12.7697 2.02616C12.4233 1.67339 12.0043 1.40042 11.5416 1.2263C11.1006 1.05502 10.5966 0.93784 9.85854 0.904283C9.11918 0.870405 8.88305 0.862427 7.00005 0.862427C5.11706 0.862427 4.88087 0.870405 4.14147 0.904155C3.40346 0.93784 2.89948 1.05502 2.45847 1.22643C1.99585 1.40053 1.57676 1.67343 1.23044 2.02614C0.877658 2.37243 0.604677 2.79151 0.430522 3.25416C0.259248 3.69521 0.142064 4.19918 0.108506 4.93718C0.0746291 5.67659 0.0666504 5.91278 0.0666504 7.79577C0.0666504 9.67877 0.0746291 9.91496 0.108506 10.6543C0.142202 11.3923 0.259386 11.8963 0.430789 12.3373C0.60489 12.8 0.877797 13.219 1.2305 13.5654C1.57682 13.9181 1.9959 14.191 2.45852 14.365C2.89957 14.5365 3.40355 14.6537 4.14152 14.6874C4.88103 14.7211 5.11714 14.7291 7.00011 14.7291C8.88308 14.7291 9.11929 14.7211 9.85865 14.6874C10.5967 14.6537 11.1007 14.5365 11.5416 14.365C12.0022 14.1869 12.4206 13.9146 12.7697 13.5654ZM1.13277 6.97972C1.13304 7.20402 1.13337 7.47089 1.13337 7.79578C1.13337 8.12068 1.13304 8.38755 1.13277 8.61184C1.13171 9.48745 1.13144 9.71422 1.15426 10.2123C1.18265 10.8367 1.21676 11.2956 1.32092 11.6414C1.42106 11.9739 1.53337 12.3122 1.90004 12.7207C2.2667 13.129 2.62037 13.3139 3.07086 13.4498C3.52136 13.5856 4.08756 13.6149 4.57921 13.6373C5.13686 13.6627 5.35787 13.6626 6.5276 13.6623H7.00005C7.31256 13.6623 7.57139 13.6625 7.79028 13.6629C8.6874 13.6638 8.91385 13.664 9.41678 13.641C10.0413 13.6126 10.5001 13.5785 10.846 13.4744C11.1784 13.3742 11.5168 13.2619 11.9251 12.8952C12.3334 12.5286 12.5184 12.1749 12.6543 11.7244C12.7902 11.2738 12.8194 10.7077 12.8418 10.216C12.8672 9.65911 12.8671 9.43871 12.8669 8.27308L12.8668 7.79618V7.32373C12.8671 6.154 12.8672 5.93299 12.8417 5.37533C12.8193 4.88369 12.7901 4.31749 12.6543 3.86699C12.5184 3.41651 12.3334 3.06283 11.9251 2.69617C11.5168 2.3295 11.1783 2.21719 10.846 2.11705C10.5 2.01289 10.0412 1.97878 9.41674 1.95038C8.91381 1.92734 8.68739 1.92759 7.7903 1.92857C7.5714 1.92882 7.31257 1.9291 7.00005 1.9291L6.52749 1.92902C5.35786 1.92871 5.13685 1.92865 4.57921 1.95409C4.08756 1.97652 3.52136 2.00571 3.07086 2.14158C2.62037 2.27746 2.2667 2.46242 1.90004 2.87076C1.53337 3.27909 1.42106 3.61748 1.32092 3.94993C1.21676 4.29575 1.18265 4.75463 1.15426 5.37909C1.13144 5.87716 1.13171 6.10404 1.13277 6.97972ZM6.99994 5.39592C5.67455 5.39592 4.60011 6.47036 4.60011 7.79575C4.60011 9.12114 5.67455 10.1956 6.99994 10.1956C8.32533 10.1956 9.39977 9.12114 9.39977 7.79575C9.39977 6.47036 8.32533 5.39592 6.99994 5.39592ZM3.53345 7.79575C3.53345 5.88125 5.08545 4.32925 6.99994 4.32925C8.91444 4.32925 10.4664 5.88125 10.4664 7.79575C10.4664 9.71025 8.91444 11.2622 6.99994 11.2622C5.08545 11.2622 3.53345 9.71025 3.53345 7.79575ZM10.701 4.89475C11.1428 4.89475 11.501 4.53658 11.501 4.09475C11.501 3.65292 11.1428 3.29475 10.701 3.29475C10.2592 3.29475 9.901 3.65292 9.901 4.09475C9.901 4.53658 10.2592 4.89475 10.701 4.89475Z" fill="#2563EB"/>
</svg>
